<svg xmlns="http://www.w3.org/2000/svg" width="189" height="32" viewBox="0 0 189 32">
    <g fill="none" fill-rule="nonzero">
        <path fill="#383838" d="M34.011 8.522h-7.209L29.57 3.64C31.11.916 32.59 0 35.5 0h12.018c-5.016 8.448-9.248 8.522-13.507 8.522M59.347 0l-14 23.886c-4.512 7.678-7.626 8.058-15.698 8.058l14.004-23.89C48.162.378 51.28 0 59.347 0"/>
        <path fill="#22BCA8" d="M25.334 23.422h7.211l-2.766 4.884c-1.541 2.717-3.02 3.638-5.932 3.638H11.833c5.017-8.45 9.245-8.522 13.501-8.522M0 31.944L14.004 8.057C18.51.38 21.629 0 29.698 0v.001L15.695 23.885C11.186 31.565 8.069 31.944 0 31.944"/>
        <path fill="#383838" d="M161.81 26.484c.807.353.746.92-.218.92h-12.149v3.572h12.644c7.366 0 8.248-5.615 3.207-7.31l-10.28-3.611c-.802-.35-.738-.993.154-.993h12.771v-3.574h-12.645c-7.944 0-6.9 6.65-2.335 7.87l8.852 3.126zm-66.076-7.462v11.954h-4.937V19.022h-6.39v-3.534h17.925v3.534h-6.598zm-38.3-3.534h4.936v9.95c0 .78.496 1.966 2.051 1.966h11.09v3.572H62.37c-5.08 0-4.937-3.572-4.937-5.735v-9.753zm19.952 15.488h4.933V15.488h-4.933v15.488zm32.22-15.488h13.035c3.298 0 4.905 2.506 4.905 3.874v11.614h-4.938v-9.55c0-1.641-.443-2.404-2.59-2.404h-1.775v11.954h-4.936V19.022h-1.738c-1.14 0-2.355.412-2.355 2.026v9.928h-4.936v-11.35c0-2.771 2.355-4.138 5.328-4.138zm19.812 0h4.938v9.95c0 .78.494 1.966 2.048 1.966H140.543c1.556 0 2.052-1.185 2.052-1.966v-9.95h4.936v9.753c0 2.163.143 5.735-4.936 5.735h-8.239c-5.084 0-4.938-3.572-4.938-5.735v-9.753z"/>
        <path fill="#22BCA8" d="M176.15 30.976h-6.723l13.321-10.6c.68-.301.82-1.172.063-1.314h-13.128v-3.574h12.793c8.46 0 6.54 6.746 3.582 7.991l-9.908 7.497z"/>
    </g>
</svg>
