<svg width="480" height="513" xmlns="http://www.w3.org/2000/svg">
 <!-- Created with Method Draw - http://github.com/duopixel/Method-Draw/ -->

 <g>
  <title>background</title>
  <rect fill="#e5e5e5" id="canvas_background" height="515" width="482" y="-1" x="-1"/>
 </g>
 <g>
  <title>Layer 1</title>
  <path id="svg_8" d="m-191.5,207.4375c125,-28 211,-73 223,-51c12,22 41,14 98,8c57,-6 45,14 69,11c24,-3 36,-12 68,5c32,17 31,-14 72,1c41,15 65,-43 96,-1c31,42 95,-52 114,-50c19,2 -62,38 -49,34c13,-4 58,7 67,7c9,0 37,8 38,-19c1,-27 11,-83 8,-95c-3,-12 -11,-59 -14,-73c-3,-14 -21,-82 -22,-82c-1,0 -7,-24 -54,-19c-47,5 -159,2 -186,5c-27,3 -112,0 -180,-1c-68,-1 -208,-14 -220,-14c-12,0 -67,24 -69,34c-2,10 18,78 19,91c1,13 7,49 9,71c2,22 -212,166 -87,138z" stroke-width="0" fill="#656565"/>
 </g>
</svg>